<svg xmlns="http://www.w3.org/2000/svg" viewBox="0 0 128 160" fill="none" x="0px" y="0px"><path d="M45.2863 19.2283C44.86 18.5179 43.9386 18.2875 43.2283 18.7138C42.5179 19.14 42.2876 20.0614 42.7138 20.7717C43.3194 21.7812 44.3938 22.5041 45.5836 23.0451C46.8075 23.6017 48.3461 24.0518 50.1257 24.4083C53.6901 25.1223 58.4226 25.5 64 25.5C69.5801 25.5 73.9439 25.1221 77.3281 24.4049C80.7046 23.6894 83.2038 22.616 84.9603 21.1523C85.5967 20.622 85.6827 19.6761 85.1523 19.0397C84.622 18.4033 83.6761 18.3173 83.0397 18.8477C81.7962 19.884 79.8182 20.8106 76.7062 21.4701C73.6019 22.1279 69.4657 22.5 64 22.5C58.5317 22.5 54.0143 22.1277 50.715 21.4667C49.0629 21.1357 47.7663 20.7421 46.8254 20.3142C45.8505 19.8709 45.4306 19.4688 45.2863 19.2283Z" fill="black"/><path fill-rule="evenodd" clip-rule="evenodd" d="M53 83C53 85.2091 51.2091 87 49 87C46.7909 87 45 85.2091 45 83C45 80.7909 46.7909 79 49 79C51.2091 79 53 80.7909 53 83ZM50 83C50 83.5523 49.5523 84 49 84C48.4477 84 48 83.5523 48 83C48 82.4477 48.4477 82 49 82C49.5523 82 50 82.4477 50 83Z" fill="black"/><path d="M85 91C85 92.6569 83.6569 94 82 94C80.3431 94 79 92.6569 79 91C79 89.3431 80.3431 88 82 88C83.6569 88 85 89.3431 85 91Z" fill="black"/><path d="M88 76C89.6569 76 91 74.6569 91 73C91 71.3431 89.6569 70 88 70C86.3431 70 85 71.3431 85 73C85 74.6569 86.3431 76 88 76Z" fill="black"/><path d="M62 73C62 74.6569 60.6569 76 59 76C57.3431 76 56 74.6569 56 73C56 71.3431 57.3431 70 59 70C60.6569 70 62 71.3431 62 73Z" fill="black"/><path d="M49 107C50.6569 107 52 105.657 52 104C52 102.343 50.6569 101 49 101C47.3431 101 46 102.343 46 104C46 105.657 47.3431 107 49 107Z" fill="black"/><path d="M60 100C60 101.657 58.6569 103 57 103C55.3431 103 54 101.657 54 100C54 98.3431 55.3431 97 57 97C58.6569 97 60 98.3431 60 100Z" fill="black"/><path fill-rule="evenodd" clip-rule="evenodd" d="M78 97.5C78 100.538 75.5376 103 72.5 103C69.4624 103 67 100.538 67 97.5C67 94.4624 69.4624 92 72.5 92C75.5376 92 78 94.4624 78 97.5ZM75 97.5C75 98.8807 73.8807 100 72.5 100C71.1193 100 70 98.8807 70 97.5C70 96.1193 71.1193 95 72.5 95C73.8807 95 75 96.1193 75 97.5Z" fill="black"/><path fill-rule="evenodd" clip-rule="evenodd" d="M40.5 79C43.5376 79 46 76.5376 46 73.5C46 70.4624 43.5376 68 40.5 68C37.4624 68 35 70.4624 35 73.5C35 76.5376 37.4624 79 40.5 79ZM40.5 76C41.8807 76 43 74.8807 43 73.5C43 72.1193 41.8807 71 40.5 71C39.1193 71 38 72.1193 38 73.5C38 74.8807 39.1193 76 40.5 76Z" fill="black"/><path fill-rule="evenodd" clip-rule="evenodd" d="M80 81C80 83.7614 77.7614 86 75 86C72.2386 86 70 83.7614 70 81C70 78.2386 72.2386 76 75 76C77.7614 76 80 78.2386 80 81ZM77 81C77 82.1046 76.1046 83 75 83C73.8954 83 73 82.1046 73 81C73 79.8954 73.8954 79 75 79C76.1046 79 77 79.8954 77 81Z" fill="black"/><path d="M35 95C37.7614 95 40 92.7614 40 90C40 87.2386 37.7614 85 35 85V88C36.1046 88 37 88.8954 37 90C37 91.1046 36.1046 92 35 92V95Z" fill="black"/><path fill-rule="evenodd" clip-rule="evenodd" d="M100 21V33.3197C100 34.4064 99.747 35.4782 99.261 36.4502L98.9069 37.1584C98.4846 38.0029 98.4846 38.9971 98.9069 39.8416L99.261 40.5498C99.747 41.5218 100 42.5936 100 43.6803V97C100 99.7981 98.8508 102.328 96.9987 104.143C96.9962 104.274 96.9904 104.404 96.9814 104.533C100.174 106.143 102 108.01 102 110C102 116.075 84.9868 121 64 121C43.0132 121 26 116.075 26 110C26 108.01 27.8257 106.143 31.0186 104.533C31.0096 104.404 31.0038 104.274 31.0013 104.143C29.1492 102.328 28 99.7981 28 97L28 43.6803C28 43.6202 28.0008 43.5601 28.0023 43.5H23.5C21.0147 43.5 19 41.4853 19 39V35.5H18C16.067 35.5 14.5 33.933 14.5 32V27C14.5 25.067 16.067 23.5 18 23.5H28V21C28 14.9249 44.1177 10 64 10C83.8822 10 100 14.9249 100 21ZM95.9393 21C95.8196 20.817 95.5248 20.4637 94.8286 19.9607C93.5051 19.0046 91.3321 17.9777 88.287 17.0472C82.2462 15.2014 73.6585 14 64 14C54.3415 14 45.7538 15.2014 39.713 17.0472C36.6679 17.9777 34.4949 19.0046 33.1714 19.9607C32.4752 20.4637 32.1804 20.817 32.0607 21C32.1804 21.1831 32.4752 21.5363 33.1714 22.0393C34.4949 22.9954 36.6679 24.0223 39.713 24.9528C45.7538 26.7986 54.3415 28 64 28C73.6585 28 82.2462 26.7986 88.287 24.9528C91.3321 24.0223 93.5051 22.9954 94.8286 22.0393C95.5248 21.5363 95.8195 21.1831 95.9393 21ZM64 32C77.7258 32 89.6574 29.6529 95.7306 26.2005C95.5845 26.4319 95.5 26.7061 95.5 27C95.5 27.8827 94.9864 28.9443 93.5374 30.1148C92.0984 31.2772 89.9135 32.3919 87.0508 33.3567C81.34 35.2813 73.2608 36.5 64 36.5C54.7392 36.5 46.66 35.2813 40.9492 33.3567C38.0865 32.3919 35.9016 31.2772 34.4626 30.1148C33.0136 28.9443 32.5 27.8827 32.5 27C32.5 26.7061 32.4155 26.4319 32.2694 26.2005C38.3426 29.6529 50.2742 32 64 32ZM29.0931 39.8416L28.7639 40.5H23.5C22.6716 40.5 22 39.8284 22 39V35.5H28.3482C28.4547 35.8249 28.5852 36.1425 28.739 36.4502L29.0931 37.1584C29.5154 38.0029 29.5154 38.9971 29.0931 39.8416ZM28 32.5H22V30.5C22 29.6716 21.3284 29 20.5 29C19.6716 29 19 29.6716 19 30.5V32.5H18C17.7239 32.5 17.5 32.2761 17.5 32V27C17.5 26.7239 17.7239 26.5 18 26.5H28V32.5ZM90 107C90.6455 107 91.2766 106.939 91.888 106.822C91.6777 107.091 91.4345 107.364 91.1557 107.64C89.8286 108.956 87.8063 110.233 85.1469 111.348C79.8363 113.575 72.3609 115 64 115C55.6391 115 48.1637 113.575 42.8531 111.348C40.1937 110.233 38.1714 108.956 36.8443 107.64C36.5656 107.364 36.3223 107.091 36.112 106.822C36.7234 106.939 37.3545 107 38 107H38.5C39.6046 107 40.5 106.105 40.5 105C40.5 103.895 39.6046 103 38.5 103H38C34.6863 103 32 100.314 32 97L32 43.9519C32.1853 44.1219 32.3781 44.2875 32.5775 44.4486C34.3969 45.9182 36.9472 47.1738 39.9912 48.1996C46.0938 50.2563 54.5147 51.5 64 51.5C73.4853 51.5 81.9062 50.2563 88.0088 48.1996C91.0528 47.1738 93.6031 45.9182 95.4225 44.4486C95.6219 44.2875 95.8147 44.1219 96 43.9519V56.6653C93.2569 54.8849 89.4947 54.9227 86.9721 57.9845C86.8593 58.0543 86.7145 58.08 86.5852 58.0941C86.4266 58.1114 86.2114 58.1226 86.0638 58.0454C83.8094 56.5633 80.8846 57.0792 79.1091 59.0762C79.1065 59.0777 79.1026 59.0799 79.0971 59.0825C79.0741 59.0935 79.04 59.1041 79.0013 59.1081C78.9927 59.109 78.9849 59.1094 78.9778 59.1096C78.9673 59.1099 78.9584 59.1095 78.9513 59.1089C76.509 57.0795 72.6646 56.333 70.0165 58.3971C69.4063 58.8727 68.932 59.4365 68.5528 59.9419C64.4847 55.2198 58.4998 56.0267 53.8584 59.3762C51.0539 54.2692 44.1129 52.9476 39.6896 56.7181C38.5513 55.8856 37.166 55.3889 35.6667 55.3889C35.4413 55.3889 35.2189 55.3998 35 55.4212V58.4511C35.219 58.4101 35.4419 58.3889 35.6667 58.3889C36.5156 58.3889 37.3123 58.6765 37.9848 59.189C39.0025 59.9647 40.516 59.991 41.545 59.08C44.6134 56.3636 49.5153 57.377 51.347 61.0458C52.0005 62.3548 53.8263 63.1271 55.2706 62.0598C57.206 60.6295 59.0933 59.5 61.5 59.5C63.6701 59.5 65.4496 60.8067 66.5385 62.2168C67.4077 63.3423 69.4558 63.8382 70.5948 62.2367C71.0551 61.5894 71.4084 61.1158 71.8608 60.7632C72.2595 60.4524 72.7812 60.2043 73.619 60.1667C74.6798 60.1724 75.5486 60.6723 76.4021 61.1633C77.3164 61.6893 78.2129 62.2052 79.3087 62.0923C80.0795 62.0129 80.643 61.5585 81.1978 61.1111C81.7883 60.6349 82.3691 60.1667 83.1795 60.1667C83.7954 60.1667 84.3258 60.3935 84.8616 60.6227C85.4886 60.8909 86.123 61.1622 86.9102 61.0764C87.6624 60.9945 88.6373 60.6881 89.275 59.9073C91.3931 57.3139 94.7416 58.4571 96 60.9841V97C96 100.314 93.3137 103 90 103H89C87.8954 103 87 103.895 87 105C87 106.105 87.8954 107 89 107H90ZM33.0693 40.6569C33.1277 40.4765 33.1787 40.2944 33.222 40.1108C34.8868 41.0884 36.8902 41.9447 39.1354 42.6791C45.4764 44.7532 54.198 46 64 46C73.802 46 82.5236 44.7532 88.8646 42.6791C91.1098 41.9447 93.1132 41.0884 94.778 40.1108C94.8214 40.2944 94.8723 40.4765 94.9307 40.6569C94.6197 41.1185 94.1668 41.6064 93.5374 42.1148C92.0984 43.2772 89.9135 44.3919 87.0508 45.3567C81.34 47.2813 73.2608 48.5 64 48.5C54.7392 48.5 46.66 47.2813 40.9492 45.3567C38.0865 44.3919 35.9016 43.2772 34.4626 42.1148C33.8332 41.6064 33.3803 41.1185 33.0693 40.6569ZM96 33V31.9519C95.8147 32.1219 95.6219 32.2875 95.4225 32.4486C93.6031 33.9182 91.0528 35.1738 88.0088 36.1996C81.9062 38.2563 73.4853 39.5 64 39.5C54.5147 39.5 46.0938 38.2563 39.9912 36.1996C36.9472 35.1738 34.3969 33.9182 32.5775 32.4486C32.3781 32.2875 32.1853 32.1219 32 31.9519V33C32 33.645 32.3859 34.5753 33.8304 35.7078C35.2554 36.8249 37.4531 37.9203 40.379 38.8773C46.2094 40.7844 54.4878 42 64 42C73.5121 42 81.7906 40.7844 87.621 38.8773C90.5469 37.9203 92.7446 36.8249 94.1696 35.7078C95.6141 34.5753 96 33.645 96 33Z" fill="black"/><text x="0" y="143" fill="#000000" font-size="5px" font-weight="bold" font-family="'Helvetica Neue', Helvetica, Arial-Unicode, Arial, Sans-serif">Created by Guilherme Simoes</text><text x="0" y="148" fill="#000000" font-size="5px" font-weight="bold" font-family="'Helvetica Neue', Helvetica, Arial-Unicode, Arial, Sans-serif">from the Noun Project</text></svg>